<?xml version="1.0" encoding="UTF-8" standalone="no"?>
<svg
   clip-rule="evenodd"
   fill-rule="evenodd"
   stroke-linejoin="round"
   stroke-miterlimit="2"
   viewBox="0 0 48 48"
   version="1.1"
   id="svg5"
   xmlns:inkscape="http://www.inkscape.org/namespaces/inkscape"
   xmlns="http://www.w3.org/2000/svg"
   xmlns:svg="http://www.w3.org/2000/svg">
  <defs
     id="defs5" />
  <inkscape:namedview
     id="namedview5"
     pagecolor="#ffffff"
     bordercolor="#000000"
     borderopacity="0.25"
     inkscape:showpageshadow="2"
     inkscape:pageopacity="0.0"
     inkscape:pagecheckerboard="0"
     inkscape:deskcolor="#d1d1d1"
     inkscape:zoom="27.017372"
     inkscape:cx="22.615079"
     inkscape:cy="23.022225"
     inkscape:window-width="5120"
     inkscape:window-height="2043"
     inkscape:window-x="0"
     inkscape:window-y="131"
     inkscape:window-maximized="1"
     inkscape:current-layer="svg5" />
  <linearGradient
     id="a"
     x2="1"
     gradientTransform="matrix(-0.22565714,-37.8903,37.699369,-0.2268,22.634306,39.9557)"
     gradientUnits="userSpaceOnUse">
    <stop
       stop-color="#0085ff"
       offset="0"
       id="stop1"
       style="stop-color:#5f9310;stop-opacity:1;" />
    <stop
       stop-color="#50bcff"
       offset="1"
       id="stop2"
       style="stop-color:#86ac26;stop-opacity:1;" />
  </linearGradient>
  <path
     d="m 23.909746,2 c -0.567127,0.004 -1.13326,0.032 -1.698398,0.082 -0.408929,0.033 -0.810893,0.085 -1.212857,0.141 -0.212922,0.027 -0.424849,0.058 -0.636775,0.091 -0.573098,0.097 -1.135251,0.22 -1.689444,0.362 -0.03582,0.009 -0.07263,0.018 -0.108451,0.027 -8.39946,2.199 -14.5473249,9.422 -14.5473249,17.996 0,0.062 0.00497,0.124 0.00597,0.186 -0.00199,0.038 -0.00398,0.077 -0.00597,0.115 0.00995,5.887 3.0734344,11.41 7.9596889,15 L 11.6917,42.367882 17.254453,38.879 c 2.137176,0.734 4.389767,1.113 6.661263,1.121 10.58539,-0.012 19.308212,-7.935 19.848476,-18.029 0.01492,-0.222 0.02686,-0.443 0.03482,-0.666 0.006,-0.102 0.01194,-0.203 0.01592,-0.305 -9.95e-4,-0.041 -0.002,-0.082 -0.004,-0.123 10e-4,-0.06 0.004,-0.118 0.004,-0.178 0,-9.684 -7.837307,-17.666 -17.913277,-18.603 C 25.351445,2.047 24.799241,2.02 24.246043,2.015 24.134607,2.014 24.026157,2 23.913726,2 Z"
     fill="url(#a)"
     fill-rule="nonzero"
     id="path2"
     style="fill:url(#a);stroke-width:0.997477" />
  <path
     d="m 33.001,18.772919 c 7.68,0 14,5.91559 14,13.10543 -10e-4,3.871143 -1.833,7.549737 -5,10.037752 l 0.289862,5.38999 L 38.28,44.008938 c -1.676,0.641158 -3.469,0.972826 -5.279,0.974842 -7.681,0 -14,-5.91559 -14,-13.105431 0,-7.18984 6.319,-13.10543 14,-13.10543 z"
     fill="#fff"
     fill-rule="nonzero"
     id="path4"
     style="fill:#ececee;fill-opacity:1;stroke-width:1.00405" />
</svg>
