<?xml version="1.0" encoding="UTF-8"?>
<svg version="1.1" xmlns="http://www.w3.org/2000/svg" width="1024" height="1024">
<path d="M0,0 L61,0 L75,2 L89,11 L101,22 L118,39 L127,50 L141,69 L155,89 L164,101 L191,111 L217,123 L226,123 L283,114 L304,112 L324,112 L345,115 L354,118 L365,127 L373,135 L381,142 L398,159 L405,167 L415,178 L418,184 L421,200 L422,210 L422,230 L420,251 L411,308 L411,317 L420,336 L429,359 L433,370 L449,382 L465,393 L484,407 L499,420 L520,441 L530,455 L533,464 L534,473 L534,534 L532,548 L523,562 L512,574 L495,591 L484,600 L465,614 L445,628 L433,637 L423,664 L411,690 L411,699 L420,756 L422,777 L422,797 L419,818 L416,827 L407,838 L399,846 L392,854 L375,871 L367,878 L356,888 L350,891 L334,894 L324,895 L304,895 L283,893 L226,884 L217,884 L198,893 L175,902 L164,906 L152,922 L141,938 L127,957 L114,972 L93,993 L79,1003 L70,1006 L61,1007 L0,1007 L-14,1005 L-28,996 L-40,985 L-57,968 L-66,957 L-80,938 L-94,918 L-103,906 L-130,896 L-156,884 L-165,884 L-222,893 L-243,895 L-263,895 L-284,892 L-293,889 L-304,880 L-312,872 L-320,865 L-337,848 L-344,840 L-354,829 L-357,823 L-360,807 L-361,797 L-361,777 L-359,756 L-350,699 L-350,690 L-359,671 L-368,648 L-372,637 L-388,625 L-404,614 L-423,600 L-438,587 L-459,566 L-469,552 L-472,543 L-473,534 L-473,473 L-471,459 L-462,445 L-451,433 L-434,416 L-423,407 L-404,393 L-384,379 L-372,370 L-362,343 L-350,317 L-350,308 L-359,251 L-361,230 L-361,210 L-358,189 L-355,180 L-346,169 L-338,161 L-331,153 L-314,136 L-306,129 L-295,119 L-289,116 L-273,113 L-263,112 L-243,112 L-222,114 L-165,123 L-156,123 L-137,114 L-114,105 L-103,101 L-91,85 L-80,69 L-66,50 L-53,35 L-32,14 L-18,4 L-9,1 Z " fill="#FFFFFF" transform="translate(482,9)"/>
<path d="M0,0 L61,0 L75,2 L89,11 L101,22 L118,39 L127,50 L141,69 L155,89 L164,101 L191,111 L217,123 L226,123 L283,114 L304,112 L324,112 L345,115 L354,118 L365,127 L373,135 L381,142 L398,159 L405,167 L415,178 L418,184 L421,200 L422,210 L422,230 L420,251 L411,308 L411,317 L420,336 L429,359 L433,370 L449,382 L465,393 L484,407 L499,420 L520,441 L530,455 L533,464 L534,473 L534,534 L532,548 L523,562 L512,574 L495,591 L484,600 L465,614 L445,628 L433,637 L423,664 L411,690 L411,699 L420,756 L422,777 L422,797 L419,818 L416,827 L407,838 L399,846 L392,854 L375,871 L367,878 L356,888 L350,891 L334,894 L324,895 L304,895 L283,893 L226,884 L217,884 L198,893 L175,902 L164,906 L152,922 L141,938 L127,957 L114,972 L93,993 L79,1003 L70,1006 L61,1007 L0,1007 L-14,1005 L-28,996 L-40,985 L-57,968 L-66,957 L-80,938 L-94,918 L-103,906 L-130,896 L-156,884 L-165,884 L-222,893 L-243,895 L-263,895 L-284,892 L-293,889 L-304,880 L-312,872 L-320,865 L-337,848 L-344,840 L-354,829 L-357,823 L-360,807 L-361,797 L-361,777 L-359,756 L-350,699 L-350,690 L-359,671 L-368,648 L-372,637 L-388,625 L-404,614 L-423,600 L-438,587 L-459,566 L-469,552 L-472,543 L-473,534 L-473,473 L-471,459 L-462,445 L-451,433 L-434,416 L-423,407 L-404,393 L-384,379 L-372,370 L-362,343 L-350,317 L-350,308 L-359,251 L-361,230 L-361,210 L-358,189 L-355,180 L-346,169 L-338,161 L-331,153 L-314,136 L-306,129 L-295,119 L-289,116 L-273,113 L-263,112 L-243,112 L-222,114 L-165,123 L-156,123 L-137,114 L-114,105 L-103,101 L-91,85 L-80,69 L-66,50 L-53,35 L-32,14 L-18,4 L-9,1 Z M0,33 L-7,36 L-17,44 L-30,57 L-39,68 L-53,87 L-67,107 L-81,125 L-86,129 L-104,136 L-129,146 L-148,155 L-153,156 L-165,156 L-222,147 L-243,145 L-263,145 L-278,147 L-293,161 L-306,173 L-317,185 L-326,195 L-328,210 L-328,230 L-326,251 L-317,308 L-317,320 L-320,329 L-331,353 L-343,385 L-347,391 L-359,401 L-376,413 L-390,423 L-406,435 L-420,447 L-432,459 L-439,469 L-440,473 L-440,534 L-437,541 L-429,551 L-416,564 L-405,573 L-386,587 L-366,601 L-348,615 L-344,620 L-337,638 L-327,663 L-318,682 L-317,687 L-317,699 L-326,756 L-328,777 L-328,797 L-326,812 L-312,827 L-300,840 L-288,851 L-278,860 L-263,862 L-243,862 L-222,860 L-165,851 L-153,851 L-144,854 L-120,865 L-88,877 L-82,881 L-72,893 L-60,910 L-50,924 L-38,940 L-26,954 L-14,966 L-4,973 L0,974 L61,974 L68,971 L78,963 L91,950 L100,939 L114,920 L128,900 L142,882 L147,878 L165,871 L190,861 L209,852 L214,851 L226,851 L283,860 L304,862 L324,862 L339,860 L354,846 L367,834 L378,822 L387,812 L389,797 L389,777 L387,756 L378,699 L378,687 L381,678 L392,654 L404,622 L408,616 L420,606 L437,594 L451,584 L467,572 L481,560 L493,548 L500,538 L501,534 L501,473 L498,466 L490,456 L477,443 L466,434 L447,420 L427,406 L409,392 L405,387 L398,369 L388,344 L379,325 L378,320 L378,308 L387,251 L389,230 L389,210 L387,195 L373,180 L361,167 L349,156 L339,147 L324,145 L304,145 L283,147 L226,156 L214,156 L205,153 L181,142 L149,130 L143,126 L133,114 L121,97 L111,83 L99,67 L87,53 L75,41 L65,34 L61,33 Z " fill="#009600" transform="translate(482,9)"/>
<path d="M0,0 L1,0 L1,329 L-17,329 L-43,326 L-74,320 L-98,313 L-118,306 L-141,296 L-166,283 L-185,271 L-202,259 L-213,250 L-227,238 L-232,232 Z " fill="#96CD00" transform="translate(503,533)"/>
<path d="M0,0 L7,6 L16,16 L27,30 L39,47 L52,68 L66,95 L77,122 L85,147 L91,172 L96,204 L97,215 L97,233 L-232,233 L-226,226 Z " fill="#96CD00" transform="translate(765,271)"/>
<path d="M0,0 L7,6 L233,232 L233,233 L-96,233 L-96,215 L-93,189 L-87,158 L-80,134 L-73,114 L-63,91 L-50,66 L-38,47 L-26,30 L-17,19 L-5,5 Z " fill="#96CD00" transform="translate(259,271)"/>
<path d="M0,0 L7,6 L150,149 L157,157 L232,232 L230,236 L217,248 L203,259 L186,271 L165,284 L138,298 L111,309 L86,317 L61,323 L29,328 L18,329 L0,329 Z " fill="#96CD00" transform="translate(521,533)"/>
<path d="M0,0 L328,0 L328,18 L325,44 L319,75 L312,99 L305,119 L295,142 L282,167 L270,186 L258,203 L249,214 L237,228 L233,232 L229,230 L0,1 Z " fill="#96CD00" transform="translate(534,521)"/>
<path d="M0,0 L18,0 L18,328 L11,322 L-134,177 L-141,169 L-214,96 L-208,89 L-193,76 L-174,62 L-157,51 L-136,39 L-111,27 L-87,18 L-68,12 L-43,6 L-11,1 Z " fill="#96CD00" transform="translate(486,163)"/>
<path d="M0,0 L327,0 L321,7 L96,232 L89,226 L76,211 L62,192 L51,175 L39,154 L27,129 L18,105 L12,86 L6,61 L1,29 L0,18 Z " fill="#96CD00" transform="translate(163,521)"/>
<path d="M0,0 L18,0 L44,3 L75,9 L99,16 L119,23 L142,33 L167,46 L186,58 L203,70 L214,79 L228,91 L232,96 L1,327 L0,327 Z " fill="#96CD00" transform="translate(521,163)"/>
</svg>
